# xmcd
#
# Track frame offsets:
#	150
#	18522
#	35205
#	51139
#	68162
#	89217
#	104837
#	121075
#	133072
#	151075
#	164137
#	182509
#	199192
#	215127
#	232150
#	253205
#	268827
#	285062
#	297060
#	315065
#
# Disc length: 4375 seconds
#
# Revision: 0
# Processed by: cddbd v1.5.1PL2 Copyright (c) Steve Scherf et al.
# Submitted via: audiograbber 1.83.01
#
DISCID=33111514
DTITLE=Top Hits Monthly Country  - Thmc0412
DYEAR=2005
DGENRE=Karaoke
TTITLE0=Woman With You - Kenny Chesney (Vocal)
TTITLE1=He Gets That From Me - Reba Mcentire (Vocal)
TTITLE2=Trip Around The Sun - Jimmy Buffett With Martin (Vo
TTITLE3=Let Them Be Little - Billy Dean (Vocal)
TTITLE4=Back When - Tim Mcgraw (Vocal)
TTITLE5=What Say You - Travis Tritt With John Me (Vo
TTITLE6=Mud On The Tires - Brad Paisley (Vocal)
TTITLE7=Nothin' To Lose - Josh Gracin (Vocal)
TTITLE8=November - Emerson Drive (Vocal)
TTITLE9=Nothin 'Bout Love Makes S - Leann Rimes (Vocal)
TTITLE10=Woman With You - Kenny Chesney
TTITLE11=He Gets That From Me - Reba Mcentire
TTITLE12=Trip Around The Sun - Jimmy Buffett With Martin
TTITLE13=Let Them Be Little - Billy Dean
TTITLE14=Back When - Tim Mcgraw
TTITLE15=What Say You - Travis Tritt With John Me
TTITLE16=Mud On The Tires - Brad Paisley
TTITLE17=Nothin' To Lose - Josh Gracin
TTITLE18=November - Emerson Drive
TTITLE19=Nothin 'Bout Love Makes S - Leann Rimes
EXTD=
EXTT0=
EXTT1=
EXTT2=
EXTT3=
EXTT4=
EXTT5=
EXTT6=
EXTT7=
EXTT8=
EXTT9=
EXTT10=
EXTT11=
EXTT12=
EXTT13=
EXTT14=
EXTT15=
EXTT16=
EXTT17=
EXTT18=
EXTT19=
PLAYORDER=
